<?xml version="1.0" standalone="no"?>
<!DOCTYPE svg PUBLIC "-//W3C//DTD SVG 20010904//EN"
 "http://www.w3.org/TR/2001/REC-SVG-20010904/DTD/svg10.dtd">
<svg version="1.0" xmlns="http://www.w3.org/2000/svg"
 width="460.000000pt" height="460.000000pt" viewBox="0 0 460.000000 460.000000"
 preserveAspectRatio="xMidYMid meet">
<metadata>
Created by potrace 1.11, written by Peter Selinger 2001-2013
</metadata>
<g transform="translate(0.000000,460.000000) scale(0.100000,-0.100000)"
fill="#000000" stroke="none">
<path d="M0 2980 c0 -1373 2 -1620 14 -1620 7 0 16 -9 19 -20 6 -22 -18 -29
-26 -7 -3 6 -6 0 -6 -15 -1 -31 9 -46 87 -127 29 -31 69 -77 90 -103 20 -26
45 -50 55 -53 10 -4 41 -30 70 -59 29 -29 72 -68 97 -87 25 -19 46 -37 48 -41
15 -36 134 -128 169 -132 15 -2 31 -4 36 -5 14 -2 7 -20 -10 -24 -14 -4 -14
-5 3 -6 12 0 24 -9 26 -19 3 -11 21 -30 39 -44 44 -33 160 -72 169 -57 5 7 12
5 23 -5 8 -9 20 -16 26 -16 18 0 59 -52 53 -68 -3 -9 -1 -13 5 -9 6 4 13 1 16
-7 3 -7 28 -16 57 -19 29 -4 60 -13 70 -22 9 -8 21 -15 27 -15 6 0 13 -4 15
-9 6 -17 101 -90 126 -96 30 -7 95 -51 139 -94 18 -17 39 -31 47 -31 19 0 104
-45 131 -69 11 -10 52 -33 90 -51 39 -19 73 -38 76 -42 3 -5 56 -8 117 -7
l110 2 -16 23 c-9 13 -25 24 -34 24 -10 0 -18 4 -18 9 0 5 9 7 20 4 11 -3 20
-1 20 4 0 11 -44 33 -66 33 -8 0 -17 7 -20 15 -3 8 -16 17 -27 21 -25 8 -182
79 -211 95 -11 6 -51 27 -90 47 -39 19 -89 48 -112 63 -22 15 -53 31 -67 34
-14 4 -33 15 -43 26 -9 10 -21 19 -27 19 -5 0 -26 13 -46 28 -20 15 -48 34
-63 41 -15 8 -37 22 -47 33 -11 10 -23 18 -26 18 -3 0 -20 13 -38 30 -18 16
-38 30 -44 30 -7 0 -13 7 -13 15 0 8 -6 15 -14 15 -8 0 -16 7 -20 15 -3 8 -11
15 -18 15 -7 0 -19 9 -26 20 -7 11 -17 20 -23 20 -5 0 -27 16 -48 35 -27 26
-38 43 -38 65 0 32 17 39 37 15 7 -8 18 -15 24 -15 7 0 22 -11 34 -25 31 -36
29 -61 -3 -33 -38 35 -47 39 -63 33 -14 -5 -14 -7 -2 -15 8 -6 23 -10 33 -10
9 0 17 -6 17 -14 0 -8 14 -18 32 -21 18 -4 41 -13 50 -19 14 -8 21 -8 27 2 6
10 10 10 21 -3 7 -8 18 -15 25 -15 7 0 35 -18 61 -41 27 -22 70 -51 95 -64 25
-13 59 -35 75 -48 16 -13 49 -34 74 -46 25 -13 47 -26 50 -30 3 -4 19 -15 35
-23 17 -8 53 -28 80 -43 28 -16 101 -54 162 -85 101 -52 118 -57 164 -54 42 3
50 1 45 -11 -6 -17 9 -20 19 -4 4 6 13 8 21 5 8 -3 11 0 8 8 -3 8 0 17 7 22 9
5 7 9 -7 15 -17 7 -17 8 4 8 12 1 22 -3 22 -9 0 -5 5 -10 10 -10 6 0 10 5 10
11 0 6 10 24 21 41 18 25 19 32 8 39 -12 7 -12 9 0 9 11 0 12 3 4 11 -11 11
-9 18 23 51 5 6 8 25 6 41 -5 31 -8 30 55 12 14 -4 23 -2 23 4 0 6 5 11 10 11
6 0 10 -6 10 -14 0 -8 5 -18 12 -22 8 -5 9 -2 5 9 -4 11 -1 17 8 17 8 0 15 -7
15 -15 0 -18 16 -20 24 -2 3 6 4 -7 1 -30 -6 -48 -3 -51 22 -24 13 13 24 16
38 10 19 -7 19 -8 -2 -8 -14 -1 -23 -7 -23 -16 0 -9 -7 -18 -15 -21 -8 -4 -12
-10 -9 -15 3 -5 1 -9 -4 -9 -6 0 -13 -7 -16 -16 -3 -8 -2 -12 4 -9 6 4 10 -8
10 -27 0 -25 3 -29 10 -18 5 8 10 27 10 41 0 15 6 29 13 32 12 4 15 -20 17
-123 1 -53 51 -95 66 -55 4 8 14 15 23 14 10 0 11 -2 3 -6 -14 -6 -17 -53 -2
-53 6 0 10 -10 10 -21 0 -17 3 -19 14 -10 12 10 13 8 9 -8 -7 -28 13 -27 29 2
7 12 13 25 14 30 1 4 2 10 3 13 0 4 8 1 17 -7 13 -10 17 -10 25 2 8 13 13 35
10 52 0 4 4 7 9 7 6 0 10 5 10 10 0 6 -9 10 -20 10 -11 0 -20 -5 -20 -12 0 -6
-2 -9 -5 -6 -3 3 2 21 10 41 19 46 19 47 -5 47 -13 0 -18 -5 -14 -15 4 -11 2
-13 -8 -10 -19 8 -18 50 1 50 8 0 16 6 19 13 2 6 -2 12 -8 12 -7 0 -10 7 -6
16 4 11 1 14 -13 9 -23 -7 -51 3 -51 19 0 6 7 20 15 30 12 16 17 17 30 6 12
-10 15 -10 15 4 0 9 -6 16 -12 16 -10 0 -10 2 0 9 11 7 11 9 -2 14 -20 8 -21
27 -1 27 8 0 15 5 15 10 0 6 -5 10 -12 10 -6 0 -8 3 -5 7 4 3 26 7 50 7 27 1
41 5 40 13 -2 7 4 10 12 6 9 -3 13 -13 11 -22 -3 -9 3 -27 14 -41 16 -20 20
-22 20 -7 0 27 19 20 27 -10 l7 -28 6 25 c7 29 28 33 44 7 8 -13 8 -20 -2 -26
-11 -7 -10 -10 3 -15 25 -9 25 -9 25 29 0 19 5 35 10 35 6 0 9 -17 7 -38 -2
-31 -6 -38 -27 -41 -24 -3 -39 -16 -40 -33 0 -5 12 -8 28 -9 22 -1 20 -3 -13
-10 -22 -5 -44 -14 -49 -19 -4 -4 -14 -6 -21 -4 -8 4 -13 -3 -12 -18 1 -36 -6
-52 -28 -65 -18 -11 -15 -12 23 -13 24 0 42 -5 42 -11 0 -6 -7 -9 -15 -5 -8 3
-22 3 -30 0 -12 -5 -13 -9 -4 -20 7 -8 9 -17 5 -21 -3 -3 -6 -1 -6 5 0 7 -6
12 -14 12 -17 0 -41 -28 -32 -37 4 -4 11 -2 15 6 7 10 14 10 39 -3 38 -20 49
-36 31 -46 -11 -7 -11 -13 0 -33 7 -14 10 -35 6 -48 -4 -17 -4 -20 3 -10 8 12
11 11 15 -5 2 -10 3 -8 1 6 -1 14 1 45 6 69 8 43 -3 71 -27 72 -12 0 -3 33 12
45 12 9 11 14 -5 32 -17 18 -17 22 -4 33 12 9 13 9 9 -2 -3 -8 7 -22 25 -34
16 -11 30 -26 30 -32 0 -7 6 -13 14 -13 11 0 13 7 6 29 -6 23 -5 29 6 24 7 -3
12 -10 11 -15 -1 -6 4 -13 11 -15 6 -3 12 2 12 11 0 27 28 18 35 -12 7 -33 41
-58 58 -44 7 6 23 12 37 15 l25 4 -27 2 c-14 0 -28 4 -31 9 -2 4 -2 1 0 -6 2
-9 -5 -12 -20 -10 -32 4 -36 67 -6 125 12 24 26 43 31 43 5 0 6 5 3 10 -4 6
-12 4 -21 -5 -23 -22 -43 -18 -55 11 -11 29 -7 40 11 29 7 -4 10 -16 7 -26 -7
-25 5 -24 28 1 13 14 22 17 30 10 8 -7 25 -1 54 21 48 34 48 47 0 30 -18 -6
-35 -9 -37 -6 -3 3 0 5 7 5 7 0 11 9 9 21 -2 15 5 24 30 34 31 14 32 13 32
-11 0 -14 4 -23 10 -19 5 3 7 11 4 18 -5 14 39 43 53 34 4 -2 17 0 28 4 18 9
18 9 -2 5 -37 -7 -37 12 -1 34 36 22 84 27 90 9 4 -13 45 4 63 26 16 19 55 26
55 9 0 -17 -42 -108 -52 -112 -5 -2 -8 -10 -8 -17 0 -7 -16 -36 -35 -65 -19
-29 -35 -54 -35 -57 0 -6 -48 -72 -76 -103 -12 -14 -25 -36 -29 -50 -4 -14
-18 -37 -31 -52 -22 -28 -23 -28 -27 -5 -3 14 -5 8 -6 -15 -1 -27 -9 -46 -31
-68 -62 -63 -114 -60 820 -60 l850 0 0 504 c0 435 -2 505 -15 516 -8 7 -15 17
-15 22 0 6 7 8 15 4 8 -3 15 -1 15 5 0 7 -10 9 -25 5 -14 -4 -25 -2 -25 3 0
10 29 23 39 17 4 -3 8 5 8 16 2 16 -3 19 -23 15 -19 -3 -24 -1 -19 11 4 12 3
13 -9 2 -9 -7 -14 -24 -12 -41 2 -16 0 -29 -4 -29 -13 0 -19 55 -7 62 17 11 4
18 -21 11 -23 -5 -31 -23 -11 -23 6 0 8 -7 5 -16 -4 -10 -2 -13 7 -8 8 5 7 2
-2 -9 -11 -14 -11 -17 0 -18 8 0 2 -5 -14 -11 -15 -5 -27 -16 -27 -25 0 -12
-2 -12 -16 2 -10 9 -13 22 -9 33 5 12 9 13 12 5 3 -7 12 -13 20 -13 12 0 13 3
4 13 -6 8 -9 16 -6 18 2 3 -14 5 -35 4 -32 0 -37 -2 -25 -11 24 -18 19 -37 -5
-22 -22 14 -28 60 -7 55 6 -1 14 -5 17 -9 3 -4 12 3 19 15 10 16 10 19 1 10
-8 -7 -19 -9 -29 -4 -9 5 -20 10 -26 11 -25 6 -33 13 -29 24 4 11 -12 13 -46
7 -3 -1 2 -6 10 -11 12 -8 10 -10 -10 -10 -14 0 -32 5 -40 10 -12 8 -11 10 8
10 23 0 44 31 25 37 -6 2 -9 24 -7 51 4 46 4 46 -7 13 -8 -26 -13 -31 -19 -21
-5 8 -6 18 -3 24 4 5 -1 7 -10 3 -10 -3 -17 -2 -17 3 0 5 -12 3 -27 -5 -32
-17 -46 -11 -38 16 9 27 -14 24 -25 -4 -5 -12 -9 -17 -9 -10 -2 23 -32 44 -49
34 -13 -7 -23 -4 -39 11 l-23 21 0 -28 c0 -33 -5 -31 -14 7 -6 25 -4 28 18 28
15 0 26 -7 29 -17 4 -17 5 -17 6 0 1 10 9 17 20 17 24 0 36 16 20 26 -6 3 -62
8 -123 9 -62 1 -122 6 -134 9 -12 4 -37 3 -57 -3 -21 -5 -37 -6 -41 0 -7 12
-84 12 -84 0 0 -5 -9 -7 -20 -4 -12 3 -20 0 -20 -6 0 -7 -5 -9 -10 -6 -6 4 -8
11 -5 16 4 5 1 9 -5 9 -7 0 -9 -8 -4 -22 6 -19 4 -21 -7 -11 -8 6 -34 10 -59
8 -25 -2 -66 -1 -92 2 -43 5 -48 8 -48 31 0 27 46 78 53 59 2 -7 4 3 4 20 0
24 9 42 35 67 20 19 31 37 26 38 -11 4 8 47 27 60 6 5 4 8 -5 8 -8 1 -4 6 9
11 19 8 21 12 11 24 -7 8 -10 24 -7 36 3 12 1 29 -5 38 -25 41 -132 -18 -144
-79 -5 -21 -11 -27 -22 -23 -9 4 -13 2 -9 -3 3 -6 -3 -23 -14 -40 -27 -40 -52
-96 -50 -111 6 -37 -71 4 -83 45 -5 13 -12 20 -19 15 -7 -3 -4 2 5 13 12 14
14 24 8 30 -7 7 -7 28 -1 59 5 28 7 53 5 57 -3 5 -1 8 5 8 6 0 9 37 8 94 -1
66 -5 92 -14 89 -6 -3 -13 6 -15 19 -4 22 -5 22 -12 3 -5 -11 -16 -36 -25 -56
-15 -32 -19 -35 -29 -20 -9 14 -11 12 -11 -11 -1 -26 -4 -28 -41 -28 -22 0
-40 5 -40 10 0 6 -4 10 -10 10 -5 0 -10 -7 -10 -16 0 -8 5 -12 10 -9 20 12 9
-13 -16 -38 -23 -24 -54 -27 -54 -6 0 5 -7 9 -15 9 -8 0 -15 6 -15 14 0 8 -7
17 -16 20 -8 3 -13 2 -10 -3 7 -10 -17 -21 -44 -21 -9 0 -24 -9 -31 -21 -10
-14 -20 -18 -32 -13 -11 4 -14 10 -9 13 6 3 0 11 -14 18 -21 10 -24 9 -24 -7
0 -13 -6 -17 -19 -13 -13 3 -20 -2 -24 -17 l-6 -22 -30 21 c-21 15 -32 34 -37
59 -4 20 -17 50 -30 65 -13 16 -24 34 -24 40 0 17 -82 97 -100 97 -5 0 -10 4
-10 9 0 5 -12 12 -27 16 -34 8 -55 24 -47 36 3 5 -4 9 -15 9 -12 0 -21 5 -21
10 0 6 -9 10 -21 10 -11 0 -18 4 -15 9 3 5 -1 11 -9 15 -8 3 -12 11 -9 19 6
17 -12 32 -48 41 -20 4 -25 11 -21 25 4 17 -2 21 -41 26 -25 4 -46 11 -46 16
0 5 7 6 14 3 20 -8 68 38 61 58 -16 42 -121 82 -155 58 -13 -9 -13 -12 1 -20
9 -5 22 -23 29 -40 7 -16 19 -30 27 -30 12 0 12 -2 -1 -15 -9 -9 -34 -15 -67
-15 -45 0 -50 -2 -39 -15 11 -13 10 -14 -3 -9 -28 11 -27 32 4 44 20 9 29 20
31 36 0 13 1 30 2 36 2 20 -33 21 -42 1 -4 -10 -17 -18 -29 -19 -12 0 -20 3
-18 7 3 4 -6 10 -20 13 -14 4 -25 11 -25 16 0 6 -6 10 -13 10 -16 0 -38 65
-30 86 3 8 12 14 20 14 9 0 13 6 9 15 -3 9 0 15 8 15 8 0 17 7 20 16 3 8 10
13 15 10 13 -9 41 4 41 18 0 6 14 13 32 14 18 2 34 5 37 8 3 3 -2 26 -11 51
-16 44 -16 48 3 82 10 20 19 33 19 29 0 -4 14 -2 30 3 17 6 30 18 30 26 0 8
-4 11 -10 8 -5 -3 -18 -1 -27 5 -15 10 -15 11 -2 6 14 -4 16 0 10 22 -5 16
-16 29 -32 33 -13 3 -23 11 -22 17 2 7 -8 14 -22 18 -20 5 -24 11 -19 26 4 14
2 18 -5 14 -6 -4 -11 0 -11 8 0 9 -4 16 -9 16 -5 0 -8 14 -6 30 2 17 1 30 -3
30 -5 0 -8 21 -7 48 0 36 -5 52 -22 69 -27 26 -29 33 -6 33 15 0 14 2 -2 20
-19 21 -14 50 10 50 8 0 15 7 15 15 0 18 -8 18 -40 0 -14 -8 -29 -14 -33 -15
-12 0 41 43 81 65 35 21 43 40 12 30 -11 -3 -20 -4 -20 -2 0 9 40 50 40 41 1
-5 9 7 18 26 10 20 32 42 51 52 18 9 43 26 55 37 12 12 27 21 33 21 6 0 13 6
16 13 8 21 99 41 197 42 126 0 279 -12 294 -24 6 -5 23 -12 36 -14 14 -3 38
-10 53 -16 16 -6 33 -9 38 -5 5 3 9 1 9 -5 0 -5 10 -13 23 -16 40 -12 77 -30
77 -37 0 -5 11 -8 25 -8 14 0 25 -6 25 -12 0 -12 42 -43 122 -91 15 -9 37 -27
51 -41 21 -21 57 -39 80 -41 4 0 12 -7 17 -15 9 -13 11 -13 19 -1 8 12 11 9
16 -11 6 -23 11 -26 36 -23 17 2 35 -3 44 -11 12 -13 17 -12 35 6 11 11 27 20
35 20 24 0 17 18 -13 35 l-27 15 40 -5 c30 -4 35 -3 20 4 -11 5 -14 10 -7 10
6 1 12 13 13 29 0 23 2 24 8 8 5 -12 10 -16 14 -9 4 6 4 19 1 28 -5 13 -2 16
17 14 28 -4 52 8 43 22 -3 6 6 22 20 36 14 14 23 29 21 34 -3 4 -1 10 5 14 6
4 8 11 4 16 -3 5 -10 7 -15 4 -5 -3 -14 -1 -21 5 -7 6 -23 18 -34 28 -12 9
-24 26 -26 37 -2 11 -10 19 -16 18 -7 -2 -12 6 -12 17 0 14 -7 20 -24 20 -24
0 -43 25 -26 35 11 7 9 45 -2 45 -4 0 -8 -4 -8 -10 0 -15 -16 -12 -34 5 -8 8
-21 15 -30 15 -8 0 -18 5 -21 10 -4 6 -10 8 -15 5 -5 -3 -13 2 -18 12 -9 14
-12 15 -26 4 -9 -8 -20 -11 -23 -7 -4 4 5 17 20 31 17 14 24 26 18 30 -6 3
-11 1 -11 -4 0 -6 -4 -11 -10 -11 -5 0 -10 7 -10 15 0 8 -7 15 -15 15 -8 0
-15 7 -15 15 0 9 -7 27 -16 40 -12 19 -25 25 -53 25 -20 0 -43 5 -51 11 -12 8
-8 9 14 6 32 -5 56 0 56 13 0 5 -25 10 -55 12 l-55 3 0 -39 c0 -51 -7 -43 -13
14 -4 42 -6 45 -34 45 -28 0 -30 2 -22 23 8 20 7 21 -10 12 -11 -5 -21 -15
-24 -22 -3 -10 -11 -9 -35 5 -16 9 -41 17 -54 17 -30 0 -63 -33 -54 -55 3 -9
0 -23 -8 -31 -21 -21 -57 -18 -63 6 -6 23 -23 27 -23 5 0 -8 -4 -15 -10 -15
-5 0 -10 7 -10 16 0 23 -24 11 -28 -14 -2 -12 -7 -22 -11 -22 -5 0 -6 11 -3
25 2 15 0 25 -7 25 -6 0 -11 -7 -11 -15 0 -19 -37 -20 -55 -1 -12 12 -12 15 1
20 8 3 12 2 9 -4 -3 -6 0 -10 8 -10 19 0 17 32 -3 46 -8 6 -28 14 -43 18 -26
6 -27 5 -18 -13 15 -28 14 -51 -3 -51 -9 0 -13 7 -11 20 2 11 0 20 -6 20 -5 0
-9 -8 -9 -17 0 -10 -4 -14 -8 -8 -10 14 -32 17 -32 5 0 -5 11 -17 25 -26 14
-9 24 -19 21 -21 -2 -2 -23 7 -45 21 -48 30 -55 16 -11 -21 17 -13 30 -30 30
-36 0 -6 -10 -1 -23 11 -27 26 -57 29 -57 6 0 -10 6 -14 14 -11 15 6 39 -23
48 -60 7 -25 -17 -32 -72 -22 l-35 6 33 3 c47 4 50 4 58 13 4 4 -1 7 -10 7
-14 0 -17 5 -12 23 5 21 3 23 -32 19 -31 -2 -34 -1 -19 8 14 9 16 15 6 26 -9
11 -9 17 0 28 9 11 9 15 -1 19 -10 4 -10 6 0 6 6 1 12 6 12 11 0 7 -6 7 -19 0
-11 -5 -38 -10 -60 -10 -22 0 -52 -5 -66 -10 -22 -8 -26 -8 -22 4 6 14 -21 46
-39 46 -5 0 -16 -9 -24 -20 -8 -11 -22 -20 -31 -20 -28 0 -49 -11 -49 -26 0
-16 -16 -19 -25 -5 -9 15 -108 1 -125 -18 -9 -9 -25 -21 -35 -27 -11 -6 -23
-22 -26 -35 -4 -13 -7 -19 -8 -12 -1 6 -10 11 -21 10 -22 -1 -33 -28 -34 -81
-1 -35 -22 -46 -31 -17 -3 12 -11 21 -16 21 -5 0 -9 7 -9 15 0 8 -5 15 -11 15
-6 0 -8 -9 -4 -21 4 -13 3 -19 -2 -16 -14 9 -37 -38 -30 -57 4 -10 1 -16 -8
-16 -26 0 -28 -23 -4 -42 13 -11 18 -17 11 -13 -23 12 -25 -26 -4 -66 12 -21
17 -39 11 -39 -5 0 -9 -4 -9 -10 0 -5 6 -10 14 -10 8 0 18 -5 22 -12 5 -8 0
-9 -14 -6 -12 4 -22 2 -22 -2 0 -5 8 -11 18 -13 16 -4 16 -5 -1 -6 -10 0 -16
-5 -13 -10 5 -7 -124 -23 -177 -22 -12 0 -17 -5 -13 -14 3 -9 -4 -15 -22 -17
-19 -2 -28 -10 -30 -25 -4 -25 7 -30 25 -12 14 14 36 2 29 -16 -2 -7 1 -18 7
-24 8 -8 8 -11 -1 -11 -7 0 -12 -13 -11 -32 0 -28 2 -30 9 -13 5 11 9 14 9 7
1 -6 7 -11 14 -10 6 2 11 -3 9 -11 -3 -12 0 -12 12 -2 12 10 17 9 26 -8 9 -17
8 -20 -6 -14 -14 5 -14 3 -2 -17 10 -17 10 -24 1 -27 -14 -5 -6 -33 9 -33 6 0
8 7 4 15 -4 10 1 15 14 15 11 0 20 -7 20 -15 0 -8 7 -15 15 -15 8 0 15 -5 15
-11 0 -7 -11 -9 -30 -5 -25 5 -30 2 -30 -14 0 -17 -3 -18 -27 -9 -20 7 -28 6
-35 -3 -6 -10 -8 -10 -8 2 0 13 -1 13 -11 0 -8 -12 -12 -12 -16 -2 -4 10 -8
10 -19 1 -10 -8 -14 -8 -14 0 0 15 -27 14 -33 -1 -4 -10 -8 -10 -15 1 -9 12
-13 12 -26 2 -14 -12 -16 -10 -16 9 0 20 -3 22 -36 15 -31 -5 -36 -4 -31 9 7
18 -8 31 -18 16 -10 -16 -25 -12 -19 5 4 10 0 15 -11 15 -12 0 -15 5 -10 20 7
23 -5 26 -24 8 -10 -11 -12 -9 -9 7 1 11 8 23 13 27 6 4 0 8 -12 8 -12 0 -25
5 -28 10 -3 6 -2 10 3 10 17 0 -10 46 -33 56 -12 6 -20 18 -20 34 0 20 -5 26
-27 28 -16 1 -39 3 -53 5 -14 1 -30 9 -35 17 -9 13 -11 13 -19 1 -8 -13 -12
-13 -27 0 -15 12 -17 12 -9 0 6 -11 3 -11 -14 2 -13 8 -30 13 -39 10 -10 -4
-13 -1 -10 8 2 8 19 15 36 17 18 2 30 8 27 13 -4 5 -2 9 4 9 5 0 12 -4 16 -10
10 -16 35 1 35 25 0 26 -21 46 -28 27 -6 -18 -22 -4 -22 19 0 13 7 19 23 20
12 0 32 2 45 3 13 2 25 -1 28 -6 3 -4 11 -8 19 -8 17 0 12 93 -5 98 -19 7 1
22 28 22 19 0 23 3 13 9 -7 5 -10 14 -7 20 5 7 -1 11 -13 11 -16 0 -21 6 -21
24 0 14 -4 28 -10 31 -19 11 -10 35 13 36 12 0 17 3 10 5 -7 3 -9 12 -6 20 3
9 -2 14 -15 14 -11 0 -22 7 -26 15 -3 8 -9 15 -13 14 -24 -4 -63 2 -63 10 0
13 43 19 68 10 12 -5 24 -4 27 0 3 5 -8 14 -25 19 -21 8 -28 16 -24 26 5 12 0
16 -20 16 -14 0 -26 5 -26 11 0 6 9 8 20 4 15 -5 18 -3 14 9 -3 9 -12 16 -20
16 -8 0 -14 5 -14 10 0 6 9 10 20 10 11 0 20 5 20 11 0 7 -7 8 -17 4 -10 -4
-27 -8 -38 -9 -16 -1 -19 4 -17 27 3 31 -24 49 -39 26 -7 -10 -8 -7 -7 11 2
16 -2 25 -12 26 -8 0 -24 5 -34 9 -14 6 -23 3 -34 -11 -13 -17 -14 -17 -8 -1
5 15 2 17 -13 12 -11 -3 -31 -3 -45 1 -22 5 -26 12 -26 45 0 21 -4 39 -10 39
-5 0 -10 -4 -10 -10 0 -5 -7 -10 -15 -10 -8 0 -15 4 -15 8 0 5 -14 9 -31 10
-17 0 -34 4 -38 8 -3 4 6 4 22 2 18 -4 27 -1 27 8 0 10 -13 14 -40 14 -32 0
-40 4 -40 18 0 10 12 22 30 29 34 13 39 32 10 40 -21 6 -28 25 -7 21 7 -2 13
10 15 28 2 25 -1 33 -18 37 -13 3 -18 10 -14 21 3 9 1 16 -6 16 -6 0 -8 4 -5
10 3 5 1 18 -4 27 -6 10 -11 16 -12 13 -8 -38 -8 -64 1 -75 8 -9 6 -14 -9 -18
-13 -3 -21 -17 -26 -46 -8 -46 -24 -55 -26 -13 l-1 27 -8 -30 c-8 -33 -13 -25
-10 17 1 14 -3 29 -8 32 -6 3 -8 15 -5 26 3 13 0 20 -8 20 -9 1 -7 6 5 15 19
14 19 15 -7 15 -31 0 -33 7 -11 38 14 20 14 22 -3 22 -12 0 -18 8 -19 25 -1
15 3 25 12 25 8 0 14 5 14 10 0 6 -4 10 -8 10 -5 0 -9 6 -9 13 0 6 -3 22 -7
35 -5 14 -3 22 4 22 6 0 9 4 5 9 -3 5 -98 10 -215 11 l-210 1 0 -1621z m550
1284 c0 -8 -4 -12 -10 -9 -5 3 -10 10 -10 16 0 5 5 9 10 9 6 0 10 -7 10 -16z
m90 -180 c0 -12 -4 -12 -20 -4 -11 6 -18 15 -15 20 8 13 35 0 35 -16z m200
-64 c0 -5 -5 -10 -11 -10 -5 0 -7 5 -4 10 3 6 8 10 11 10 2 0 4 -4 4 -10z m30
-30 c0 -5 -4 -10 -10 -10 -5 0 -10 5 -10 10 0 6 5 10 10 10 6 0 10 -4 10 -10z
m-60 -15 c0 -8 -4 -15 -10 -15 -5 0 -7 7 -4 15 4 8 8 15 10 15 2 0 4 -7 4 -15z
m2070 -76 c0 -4 8 -9 18 -11 14 -3 13 -5 -6 -10 -14 -4 -20 -2 -16 4 4 6 -1 8
-15 3 -23 -7 -61 2 -61 14 0 5 18 8 40 8 22 0 40 -3 40 -8z m-702 -60 c-3 -33
-4 -33 -8 8 -3 23 -2 39 3 34 5 -5 7 -24 5 -42z m782 20 c7 -11 9 -23 6 -27
-3 -3 -6 0 -6 6 0 7 -7 12 -15 12 -8 0 -15 7 -15 15 0 22 17 18 30 -6z m40
-11 c-1 -28 -2 -30 -11 -15 -6 10 -8 25 -5 33 9 24 16 16 16 -18z m-690 12 c0
-6 -11 -10 -25 -10 -14 0 -25 -4 -25 -10 0 -5 9 -10 20 -10 11 0 20 -4 20 -9
0 -5 -9 -7 -20 -4 -11 3 -28 -1 -37 -8 -14 -12 -16 -12 -9 0 5 8 4 16 -4 21
-10 6 -10 11 1 22 15 17 79 23 79 8z m520 0 c0 -5 -7 -10 -15 -10 -8 0 -15 5
-15 10 0 6 7 10 15 10 8 0 15 -4 15 -10z m-810 -25 c0 -8 -4 -15 -10 -15 -5 0
-10 7 -10 15 0 8 5 15 10 15 6 0 10 -7 10 -15z m187 -7 c-3 -8 -6 -5 -6 6 -1
11 2 17 5 13 3 -3 4 -12 1 -19z m693 18 c0 -3 -4 -8 -10 -11 -5 -3 -10 -1 -10
4 0 6 5 11 10 11 6 0 10 -2 10 -4z m-930 -16 c0 -5 -4 -10 -10 -10 -5 0 -10 5
-10 10 0 6 5 10 10 10 6 0 10 -4 10 -10z m570 0 c0 -5 -4 -10 -10 -10 -5 0
-10 5 -10 10 0 6 5 10 10 10 6 0 10 -4 10 -10z m256 -17 c-10 -10 -19 5 -10
18 6 11 8 11 12 0 2 -7 1 -15 -2 -18z m336 -33 c-2 -16 -6 -30 -8 -30 -2 0 -4
14 -4 30 0 17 4 30 8 30 5 0 7 -13 4 -30z m-817 10 c4 -7 -3 -8 -22 -4 -38 9
-42 14 -10 14 14 0 29 -5 32 -10z m409 -5 c-4 -8 -16 -15 -28 -15 -20 1 -20 1
4 15 31 18 30 18 24 0z m324 -5 c-7 -10 -14 -18 -15 -16 -6 6 9 36 18 36 5 0
4 -9 -3 -20z m-48 -4 c0 -2 -7 -6 -15 -10 -8 -3 -15 -1 -15 4 0 6 7 10 15 10
8 0 15 -2 15 -4z m-690 -16 c18 -12 2 -12 -25 0 -13 6 -15 9 -5 9 8 0 22 -4
30 -9z m860 0 c0 -5 -4 -10 -10 -10 -5 0 -10 5 -10 10 0 6 5 10 10 10 6 0 10
-4 10 -10z m-1180 -15 c-7 -8 -20 -15 -29 -15 -13 1 -13 3 3 15 26 19 42 19
26 0z m292 -14 c-10 -6 -10 -10 3 -21 14 -11 19 -7 16 13 0 4 4 7 9 7 6 0 10
-11 10 -25 0 -23 -3 -25 -27 -19 -37 9 -44 14 -38 25 4 5 0 9 -7 9 -9 0 -9 3
2 10 8 5 22 10 30 10 12 0 12 -2 2 -9z m838 -6 c0 -8 -4 -15 -10 -15 -5 0 -7
7 -4 15 4 8 8 15 10 15 2 0 4 -7 4 -15z m93 2 c2 -6 -2 -18 -9 -25 -12 -11
-14 -8 -14 13 0 26 14 34 23 12z m-146 -3 c-3 -3 -12 -4 -19 -1 -8 3 -5 6 6 6
11 1 17 -2 13 -5z m-2039 -64 c0 -9 -3 -7 -8 5 -5 11 -8 29 -8 40 0 16 2 15 8
-5 4 -14 8 -32 8 -40z m2120 40 c-7 -11 -19 -22 -26 -25 -13 -5 -8 8 13 32 17
20 26 15 13 -7z m-68 0 c0 -5 -4 -10 -10 -10 -5 0 -10 5 -10 10 0 6 5 10 10
10 6 0 10 -4 10 -10z m-680 -23 c0 -13 -6 -31 -13 -41 -12 -16 -14 -16 -26 -2
-7 8 -20 12 -28 9 -11 -4 -14 -2 -9 5 4 7 13 12 19 12 7 0 18 9 25 20 16 27
32 25 32 -3z m640 9 c0 -2 -7 -6 -15 -10 -8 -3 -15 -1 -15 4 0 6 7 10 15 10 8
0 15 -2 15 -4z m117 -33 c-15 -16 -17 -16 -17 -1 0 9 6 18 13 21 20 7 22 -2 4
-20z m-2180 -5 c-3 -8 -6 -5 -6 6 -1 11 2 17 5 13 3 -3 4 -12 1 -19z m2013 18
c0 -2 -7 -6 -15 -10 -8 -3 -15 -1 -15 4 0 6 7 10 15 10 8 0 15 -2 15 -4z
m-1280 -16 c0 -5 -4 -10 -10 -10 -5 0 -10 5 -10 10 0 6 5 10 10 10 6 0 10 -4
10 -10z m40 0 c0 -5 -4 -10 -10 -10 -5 0 -10 5 -10 10 0 6 5 10 10 10 6 0 10
-4 10 -10z m1295 0 c-3 -5 -14 -10 -23 -9 -14 0 -13 2 3 9 27 11 27 11 20 0z
m212 -6 c-3 -3 -12 -4 -19 -1 -8 3 -5 6 6 6 11 1 17 -2 13 -5z m-158 -18 c6
-7 22 -11 36 -8 15 2 25 0 25 -7 0 -6 -6 -11 -14 -11 -8 0 -21 -7 -30 -15 -13
-14 -18 -12 -41 11 -21 21 -24 29 -13 35 18 12 24 11 37 -5z m-2099 -55 c14
-27 13 -36 -5 -21 -8 6 -19 9 -25 5 -5 -3 -10 -4 -10 -1 0 2 -3 11 -6 20 -9
24 33 21 46 -3z m49 -31 c0 -10 -3 -8 -9 5 -12 27 -12 43 0 25 5 -8 9 -22 9
-30z m2038 14 c-3 -3 -12 -4 -19 -1 -8 3 -5 6 6 6 11 1 17 -2 13 -5z m-2152
-154 c-3 -5 -11 -10 -16 -10 -6 0 -7 5 -4 10 3 6 11 10 16 10 6 0 7 -4 4 -10z
m2595 1 c0 -5 -9 -7 -20 -4 -11 3 -20 7 -20 9 0 2 9 4 20 4 11 0 20 -4 20 -9z
m-2677 -38 c-7 -2 -21 -2 -30 0 -10 3 -4 5 12 5 17 0 24 -2 18 -5z m725 -48
c0 -14 -4 -25 -9 -25 -5 0 -8 11 -7 25 1 14 5 25 9 25 4 0 7 -11 7 -25z m1852
5 c8 -5 12 -11 10 -14 -3 -2 -14 2 -24 10 -22 15 -10 19 14 4z m-40 -124 c0
-11 -19 -15 -25 -6 -3 5 1 10 9 10 9 0 16 -2 16 -4z m-1475 -44 c-8 -8 -25 10
-19 20 4 6 9 5 15 -3 4 -7 6 -15 4 -17z m-28 -8 c-3 -3 -12 -4 -19 -1 -8 3 -5
6 6 6 11 1 17 -2 13 -5z m-987 -68 c0 -14 -4 -28 -10 -31 -6 -4 -10 7 -10 24
0 17 5 31 10 31 6 0 10 -11 10 -24z m-70 -56 c0 -5 -5 -10 -11 -10 -5 0 -7 5
-4 10 3 6 8 10 11 10 2 0 4 -4 4 -10z m1126 -140 c21 0 33 -4 29 -10 -4 -6
-10 -8 -15 -5 -11 7 -70 -15 -70 -26 0 -12 14 -11 27 2 9 9 11 7 7 -9 -3 -11
-1 -30 6 -42 13 -25 4 -42 -11 -20 -9 13 -10 13 -6 0 2 -8 13 -16 25 -18 18
-3 22 2 22 24 0 27 1 28 18 10 12 -14 14 -20 4 -23 -6 -3 -10 -9 -7 -13 3 -5
-21 -8 -54 -7 -43 1 -57 5 -54 14 6 15 -42 19 -51 4 -3 -5 -21 -9 -40 -8 -27
1 -32 4 -28 19 2 10 10 18 17 18 8 0 26 20 42 45 24 39 32 45 55 41 18 -4 28
0 33 12 5 12 9 13 12 5 3 -7 20 -13 39 -13z m43 -51 c4 -12 2 -12 -12 0 -12 9
-17 10 -17 2 0 -7 -5 -9 -11 -5 -8 4 -7 9 2 15 18 11 31 7 38 -12z m39 -64 c0
-18 -6 -25 -19 -25 -11 0 -19 5 -19 11 0 5 5 7 10 4 6 -3 10 -2 10 4 0 5 -4
13 -10 16 -5 3 -10 13 -10 21 0 11 4 12 19 5 11 -6 19 -21 19 -36z m-48 -45
c-8 -5 -22 -9 -30 -9 -10 0 -8 3 5 9 27 12 43 12 25 0z m-62 -16 c38 -9 52
-23 52 -49 0 -26 -25 -50 -62 -59 -26 -6 -28 -4 -28 24 0 40 -16 70 -38 70
-15 1 -15 2 3 16 11 8 26 12 33 9 8 -3 26 -8 40 -11z m-58 -183 c-12 -17 -28
-31 -36 -31 -19 0 -18 19 1 26 8 4 12 10 9 15 -3 5 4 9 15 9 12 0 21 5 21 12
0 6 3 9 6 5 3 -3 -4 -20 -16 -36z m-31 -228 c-4 -23 2 -53 10 -53 6 0 7 15 4
34 -6 40 5 50 32 30 17 -13 18 -16 5 -25 -12 -9 -10 -10 8 -6 12 3 22 2 22 -2
0 -9 -38 -41 -50 -41 -5 0 -13 -12 -16 -27 -9 -32 -70 -115 -93 -125 -37 -15
-43 -9 -38 34 3 23 12 47 21 54 9 6 14 18 10 27 -3 9 1 31 10 48 12 24 13 35
5 40 -8 4 -4 9 9 13 11 4 23 14 26 22 5 14 8 14 21 0 9 -8 15 -19 14 -23z
m-83 -258 c-3 -18 -43 -49 -49 -38 -3 5 -1 18 4 31 9 25 49 31 45 7z m309 -87
c4 -3 21 -2 38 3 25 7 35 5 50 -9 28 -29 12 -52 -35 -52 -23 0 -37 4 -33 10 8
13 -11 13 -34 0 -13 -6 -24 -5 -37 5 -19 13 -19 14 1 33 19 19 38 22 50 10z
m-1528 -155 c-2 -16 -4 -5 -4 22 0 28 2 40 4 28 2 -13 2 -35 0 -50z m1651 25
c10 -10 17 -10 32 0 16 10 21 9 31 -9 6 -12 7 -25 2 -30 -9 -9 -203 -18 -240
-11 -13 2 -23 11 -23 19 0 8 5 11 11 8 6 -4 17 1 24 11 13 17 16 17 25 4 7
-10 12 -12 18 -4 16 25 99 33 120 12z m1009 -10 c-3 -8 -6 -5 -6 6 -1 11 2 17
5 13 3 -3 4 -12 1 -19z m-2660 -90 c-3 -7 -5 -2 -5 12 0 14 2 19 5 13 2 -7 2
-19 0 -25z m1926 5 c4 -2 7 -13 7 -23 0 -10 6 -21 13 -23 9 -4 9 -8 -2 -15
-10 -7 -10 -14 -2 -29 10 -19 6 -21 -45 -27 -30 -3 -60 -4 -65 0 -6 3 -16 -2
-23 -12 -9 -11 -19 -15 -31 -10 -17 6 -17 7 1 21 10 8 15 15 9 16 -5 1 -14 3
-20 4 -5 0 -27 9 -48 19 -20 10 -46 16 -56 13 -10 -2 -24 -1 -31 3 -6 4 -29 4
-51 0 -21 -4 -39 -6 -39 -4 0 1 -3 9 -6 18 -5 12 0 16 20 16 15 0 41 7 58 16
22 11 64 17 136 19 57 2 106 6 109 9 6 5 50 -2 66 -11z m-1926 -65 c-3 -8 -6
-5 -6 6 -1 11 2 17 5 13 3 -3 4 -12 1 -19z m2733 -198 c-19 -13 -30 -13 -30 0
0 6 10 10 23 10 18 0 19 -2 7 -10z m507 -157 c-15 -16 -17 -16 -17 -1 0 9 6
18 13 21 20 7 22 -2 4 -20z m102 23 c-2 -2 -15 -9 -29 -16 -23 -12 -24 -12
-11 3 7 10 20 17 29 17 8 0 13 -2 11 -4z m-129 -21 c0 -8 -6 -15 -14 -15 -8 0
-16 -6 -19 -12 -3 -10 -7 -10 -17 -2 -11 11 5 25 48 43 1 1 2 -6 2 -14z m-90
-14 c0 -11 -31 -19 -47 -14 -7 3 -13 9 -13 14 0 4 6 6 14 3 8 -3 17 0 21 5 7
12 25 6 25 -8z m451 -42 c9 -18 9 -19 -10 -7 -12 7 -21 19 -21 26 0 17 17 7
31 -19z m-61 11 c0 -5 -4 -10 -10 -10 -5 0 -10 5 -10 10 0 6 5 10 10 10 6 0
10 -4 10 -10z m179 -34 c7 -8 8 -17 3 -20 -6 -3 -12 3 -15 14 -6 24 -4 25 12
6z m-23 -38 c-1 -23 3 -32 13 -30 7 2 20 -6 28 -18 8 -11 26 -21 41 -21 24 -2
25 -2 4 -6 -18 -3 -21 -8 -12 -17 8 -11 4 -12 -17 -8 -16 3 -23 7 -16 9 8 3 3
13 -14 29 -30 28 -45 24 -18 -6 10 -11 13 -20 7 -20 -6 0 -17 9 -25 20 -8 11
-17 17 -22 12 -4 -4 -5 2 -1 13 5 11 13 32 18 48 13 35 16 34 14 -5z m-76 7
c-7 -9 -15 -13 -17 -11 -7 7 7 26 19 26 6 0 6 -6 -2 -15z m130 -5 c0 -5 -4
-10 -10 -10 -5 0 -10 5 -10 10 0 6 5 10 10 10 6 0 10 -4 10 -10z m-305 -10 c3
-5 1 -10 -4 -10 -6 0 -11 5 -11 10 0 6 2 10 4 10 3 0 8 -4 11 -10z m112 -12
c-3 -8 -6 -5 -6 6 -1 11 2 17 5 13 3 -3 4 -12 1 -19z m23 -28 c0 -5 -4 -10
-10 -10 -5 0 -10 5 -10 10 0 6 5 10 10 10 6 0 10 -4 10 -10z m-187 -14 c4 -10
1 -13 -8 -9 -8 3 -12 9 -9 14 7 12 11 11 17 -5z m237 -16 c0 -5 -4 -10 -10
-10 -5 0 -10 5 -10 10 0 6 5 10 10 10 6 0 10 -4 10 -10z m210 1 c0 -5 -8 -12
-17 -14 -14 -4 -12 -5 5 -6 24 -1 27 -8 13 -30 -7 -11 -13 -9 -31 9 -21 21
-21 22 -3 35 21 17 33 19 33 6z m-270 -31 c0 -5 -2 -10 -4 -10 -3 0 -8 5 -11
10 -3 6 -1 10 4 10 6 0 11 -4 11 -10z m215 -20 c-3 -5 -10 -10 -16 -10 -5 0
-9 5 -9 10 0 6 7 10 16 10 8 0 12 -4 9 -10z m60 -30 c3 -5 -1 -10 -10 -10 -9
0 -13 5 -10 10 3 6 8 10 10 10 2 0 7 -4 10 -10z m205 -6 c0 -17 -22 -14 -28 4
-2 7 3 12 12 12 9 0 16 -7 16 -16z m-50 -14 c-8 -5 -18 -6 -24 -3 -5 4 -1 10
10 13 24 9 34 2 14 -10z m-279 -17 c-12 -20 -14 -14 -5 12 4 9 9 14 11 11 3
-2 0 -13 -6 -23z m329 -8 c9 6 9 2 -1 -16 -12 -23 -12 -23 -20 -4 -11 27 -11
43 0 26 5 -7 14 -10 21 -6z m-3845 -30 c5 -11 15 -20 21 -20 6 0 23 -15 38
-32 l28 -33 -26 0 c-15 0 -29 7 -32 15 -4 8 -17 15 -29 15 -27 0 -41 15 -23
24 7 3 4 4 -8 1 -12 -3 -31 2 -44 13 -20 16 -22 21 -10 34 19 19 71 9 85 -17z
m3475 -25 c0 -5 -4 -10 -10 -10 -5 0 -10 5 -10 10 0 6 5 10 10 10 6 0 10 -4
10 -10z m-55 -20 c3 -5 1 -10 -4 -10 -6 0 -11 5 -11 10 0 6 2 10 4 10 3 0 8
-4 11 -10z m255 -4 c0 -3 -4 -8 -10 -11 -5 -3 -10 -1 -10 4 0 6 5 11 10 11 6
0 10 -2 10 -4z m145 -56 c-3 -5 -13 -10 -21 -10 -8 0 -12 5 -9 10 3 6 13 10
21 10 8 0 12 -4 9 -10z m-3702 -26 c3 -3 3 -12 0 -20 -4 -11 -9 -12 -19 -3 -8
6 -11 15 -8 20 6 10 18 12 27 3z m-118 -124 c4 -6 11 -8 16 -5 5 4 9 1 9 -5 0
-7 -7 -9 -16 -6 -9 3 -20 6 -25 6 -5 0 -9 5 -9 10 0 13 17 13 25 0z m2577 -25
c-2 -14 -6 -25 -8 -25 -2 0 -4 11 -4 25 0 14 4 25 9 25 4 0 6 -11 3 -25z
m-575 -1 c-3 -3 -12 -4 -19 -1 -8 3 -5 6 6 6 11 1 17 -2 13 -5z m548 -4 c3 -5
1 -10 -4 -10 -6 0 -11 5 -11 10 0 6 2 10 4 10 3 0 8 -4 11 -10z m1032 -15 c-5
-37 -17 -42 -17 -7 0 18 5 32 10 32 6 0 9 -11 7 -25z m30 -40 c-14 -15 -22 -1
-12 23 5 13 8 14 15 3 5 -8 3 -19 -3 -26z m-57 21 c0 -2 -6 -17 -13 -34 -10
-25 -14 -27 -25 -16 -10 12 -10 14 3 14 8 0 15 9 15 20 0 11 5 20 10 20 6 0
10 -2 10 -4z m-1153 -28 c-3 -8 -6 -5 -6 6 -1 11 2 17 5 13 3 -3 4 -12 1 -19z
m-340 -4 c-3 -3 -12 -4 -19 -1 -8 3 -5 6 6 6 11 1 17 -2 13 -5z m1326 -1 c-7
-2 -21 -2 -30 0 -10 3 -4 5 12 5 17 0 24 -2 18 -5z m-2028 -58 c-3 -11 -5 -35
-5 -52 0 -37 -15 -44 -23 -12 -3 13 -10 18 -17 14 -8 -5 -11 -1 -8 11 2 10 13
24 26 30 22 11 22 11 2 29 -29 26 -25 39 5 18 17 -12 23 -24 20 -38z m2218 12
c-9 -16 -26 12 -18 30 7 17 8 17 15 -2 4 -11 5 -24 3 -28z m-1713 12 c0 -14
38 -11 43 4 3 9 10 7 23 -6 15 -14 15 -18 4 -16 -8 1 -23 -1 -32 -5 -23 -11
-44 -2 -58 23 -9 17 -8 20 5 15 8 -4 15 -10 15 -15z m1680 -35 c0 -8 -6 -14
-14 -14 -9 0 -12 7 -9 20 6 22 23 18 23 -6z m70 11 c0 -8 -2 -15 -4 -15 -2 0
-6 7 -10 15 -3 8 -1 15 4 15 6 0 10 -7 10 -15z m-1684 -13 c7 -4 8 -15 3 -27
-4 -11 -8 -14 -8 -7 -1 6 -13 13 -28 13 -17 1 -21 3 -10 6 9 2 17 9 17 14 0
11 11 11 26 1z m314 -2 c0 -5 -8 -10 -17 -10 -15 0 -16 2 -3 10 19 12 20 12
20 0z m40 6 c0 -11 -19 -15 -25 -6 -3 5 1 10 9 10 9 0 16 -2 16 -4z m1130 -16
c-20 -13 -33 -13 -25 0 3 6 14 10 23 10 15 0 15 -2 2 -10z m60 0 c0 -5 -7 -7
-15 -4 -8 4 -15 8 -15 10 0 2 7 4 15 4 8 0 15 -4 15 -10z m-1770 -24 c0 -2 -7
-7 -16 -10 -8 -3 -12 -2 -9 4 6 10 25 14 25 6z m1670 -6 c0 -5 -7 -10 -16 -10
-8 0 -12 5 -9 10 3 6 10 10 16 10 5 0 9 -4 9 -10z m107 -46 c-10 -10 -37 16
-37 34 0 13 4 12 22 -5 12 -13 19 -25 15 -29z m33 22 c0 -3 -4 -8 -10 -11 -5
-3 -10 -1 -10 4 0 6 5 11 10 11 6 0 10 -2 10 -4z m-1410 -41 c7 -9 8 -15 2
-15 -5 0 -12 7 -16 15 -3 8 -4 15 -2 15 2 0 9 -7 16 -15z m1328 -4 c-7 -11
-16 -17 -20 -15 -14 9 -9 22 10 27 9 3 18 5 20 6 1 0 -3 -8 -10 -18z m-1743
-11 c-3 -5 -10 -10 -16 -10 -5 0 -9 5 -9 10 0 6 7 10 16 10 8 0 12 -4 9 -10z
m1635 0 c0 -5 -4 -10 -10 -10 -5 0 -10 5 -10 10 0 6 5 10 10 10 6 0 10 -4 10
-10z m-1710 -30 c0 -5 -2 -10 -4 -10 -3 0 -8 5 -11 10 -3 6 -1 10 4 10 6 0 11
-4 11 -10z m1834 -25 c-7 -17 -20 -20 -29 -6 -3 5 3 12 12 14 10 3 19 5 20 6
1 0 0 -6 -3 -14z m-167 -1 c-3 -3 -12 -4 -19 -1 -8 3 -5 6 6 6 11 1 17 -2 13
-5z m-1302 -24 c-3 -5 -10 -10 -16 -10 -5 0 -9 5 -9 10 0 6 7 10 16 10 8 0 12
-4 9 -10z m65 0 c0 -5 -7 -10 -15 -10 -8 0 -15 5 -15 10 0 6 7 10 15 10 8 0
15 -4 15 -10z m1224 -11 c-8 -14 -24 -10 -24 6 0 9 6 12 15 9 8 -4 12 -10 9
-15z m33 -29 c-1 -22 -5 -24 -27 -10 -10 6 -11 10 -2 10 6 0 12 7 12 16 0 8 4
13 9 9 6 -3 9 -14 8 -25z m67 14 c5 -14 4 -15 -9 -4 -17 14 -19 20 -6 20 5 0
12 -7 15 -16z m56 -4 c0 -11 -7 -20 -15 -20 -18 0 -19 12 -3 28 16 16 18 15
18 -8z m-1700 0 c0 -5 -4 -10 -10 -10 -5 0 -10 5 -10 10 0 6 5 10 10 10 6 0
10 -4 10 -10z m257 -26 c-3 -3 -12 -4 -19 -1 -8 3 -5 6 6 6 11 1 17 -2 13 -5z
m86 -1 c-13 -2 -33 -2 -45 0 -13 2 -3 4 22 4 25 0 35 -2 23 -4z m1237 -23 c0
-5 -4 -10 -10 -10 -5 0 -10 5 -10 10 0 6 5 10 10 10 6 0 10 -4 10 -10z m-1675
-10 c3 -5 -1 -10 -9 -10 -9 0 -16 5 -16 10 0 6 4 10 9 10 6 0 13 -4 16 -10z
m-21 -36 c3 -8 2 -12 -4 -9 -6 3 -10 10 -10 16 0 14 7 11 14 -7z m1706 6 c0
-5 -2 -10 -4 -10 -3 0 -8 5 -11 10 -3 6 -1 10 4 10 6 0 11 -4 11 -10z m-1573
-6 c-3 -3 -12 -4 -19 -1 -8 3 -5 6 6 6 11 1 17 -2 13 -5z m1553 -14 c0 -5 -2
-10 -4 -10 -3 0 -8 5 -11 10 -3 6 -1 10 4 10 6 0 11 -4 11 -10z m40 0 c0 -5
-5 -10 -11 -10 -5 0 -7 5 -4 10 3 6 8 10 11 10 2 0 4 -4 4 -10z m-80 -14 c0
-3 -4 -8 -10 -11 -5 -3 -10 -1 -10 4 0 6 5 11 10 11 6 0 10 -2 10 -4z m15 -66
c3 -5 1 -10 -4 -10 -6 0 -11 5 -11 10 0 6 2 10 4 10 3 0 8 -4 11 -10z"/>
<path d="M3070 3624 c0 -10 31 -36 37 -31 3 3 -2 13 -10 22 -16 15 -27 19 -27
9z"/>
<path d="M2088 1673 c7 -3 16 -2 19 1 4 3 -2 6 -13 5 -11 0 -14 -3 -6 -6z"/>
<path d="M2970 4010 c0 -5 5 -10 10 -10 6 0 10 5 10 10 0 6 -4 10 -10 10 -5 0
-10 -4 -10 -10z"/>
<path d="M2797 3963 c-4 -3 -7 -11 -7 -17 0 -6 5 -5 12 2 6 6 9 14 7 17 -3 3
-9 2 -12 -2z"/>
<path d="M2875 3960 c-3 -6 1 -7 10 -4 11 4 14 2 10 -9 -4 -8 1 -17 9 -20 17
-7 20 1 10 27 -7 18 -30 21 -39 6z"/>
<path d="M3030 3950 c19 -13 30 -13 30 0 0 6 -10 10 -22 10 -19 0 -20 -2 -8
-10z"/>
<path d="M2538 3943 c7 -3 16 -2 19 1 4 3 -2 6 -13 5 -11 0 -14 -3 -6 -6z"/>
<path d="M3025 3920 c3 -5 8 -10 11 -10 2 0 4 5 4 10 0 6 -5 10 -11 10 -5 0
-7 -4 -4 -10z"/>
<path d="M3056 3914 c-10 -25 -7 -34 9 -34 9 0 15 9 15 25 0 28 -15 34 -24 9z"/>
<path d="M2230 3905 c0 -8 4 -15 10 -15 5 0 7 7 4 15 -4 8 -8 15 -10 15 -2 0
-4 -7 -4 -15z"/>
<path d="M2635 3890 c-4 -6 5 -10 20 -10 15 0 24 4 20 10 -3 6 -12 10 -20 10
-8 0 -17 -4 -20 -10z"/>
<path d="M2725 3860 c-3 -5 3 -10 15 -10 12 0 18 5 15 10 -3 6 -10 10 -15 10
-5 0 -12 -4 -15 -10z"/>
<path d="M1740 3740 c0 -5 5 -10 10 -10 6 0 10 5 10 10 0 6 -4 10 -10 10 -5 0
-10 -4 -10 -10z"/>
<path d="M3276 3717 c3 -10 9 -15 12 -12 3 3 0 11 -7 18 -10 9 -11 8 -5 -6z"/>
<path d="M1090 3650 c0 -5 5 -10 10 -10 6 0 10 5 10 10 0 6 -4 10 -10 10 -5 0
-10 -4 -10 -10z"/>
<path d="M3745 3650 c3 -5 8 -10 11 -10 2 0 4 5 4 10 0 6 -5 10 -11 10 -5 0
-7 -4 -4 -10z"/>
<path d="M1390 3548 c-16 -7 -20 -12 -12 -15 8 -3 21 2 30 11 19 18 17 19 -18
4z"/>
<path d="M1418 3413 c7 -3 16 -2 19 1 4 3 -2 6 -13 5 -11 0 -14 -3 -6 -6z"/>
<path d="M1570 3390 c0 -5 5 -10 10 -10 6 0 10 5 10 10 0 6 -4 10 -10 10 -5 0
-10 -4 -10 -10z"/>
<path d="M2040 3370 c0 -5 5 -10 10 -10 6 0 10 5 10 10 0 6 -4 10 -10 10 -5 0
-10 -4 -10 -10z"/>
<path d="M3539 3350 c-13 -11 -18 -19 -11 -20 7 0 22 9 34 20 28 26 8 26 -23
0z"/>
<path d="M3565 3320 c-4 -6 3 -10 14 -10 25 0 27 6 6 13 -8 4 -17 2 -20 -3z"/>
<path d="M3511 3303 c-7 -8 -10 -18 -5 -23 14 -14 32 3 25 21 -5 15 -8 15 -20
2z"/>
<path d="M1413 3257 c4 -10 2 -17 -5 -17 -6 0 -9 -3 -5 -6 3 -3 12 -2 20 3 13
7 13 10 -1 23 -14 13 -15 12 -9 -3z"/>
<path d="M1450 3261 c0 -6 5 -13 10 -16 6 -3 10 1 10 9 0 9 -4 16 -10 16 -5 0
-10 -4 -10 -9z"/>
<path d="M3470 3255 c0 -8 4 -15 10 -15 5 0 7 7 4 15 -4 8 -8 15 -10 15 -2 0
-4 -7 -4 -15z"/>
<path d="M1346 3227 c3 -10 9 -15 12 -12 3 3 0 11 -7 18 -10 9 -11 8 -5 -6z"/>
<path d="M1200 3209 c0 -5 5 -7 10 -4 6 3 10 8 10 11 0 2 -4 4 -10 4 -5 0 -10
-5 -10 -11z"/>
<path d="M2464 3125 c11 -8 28 -15 37 -15 10 0 21 -4 24 -10 3 -5 13 -10 21
-10 8 0 14 5 14 10 0 6 -7 10 -16 10 -10 0 -14 6 -10 15 4 12 -4 15 -42 15
-43 -1 -46 -2 -28 -15z"/>
<path d="M2568 3132 c7 -5 10 -16 6 -25 -4 -11 1 -18 18 -22 39 -9 133 -14
121 -7 -6 4 -12 16 -14 26 -3 16 -12 20 -47 20 -23 0 -42 4 -42 8 0 4 -12 8
-27 8 -19 0 -24 -3 -15 -8z"/>
<path d="M2756 3081 c-14 -5 -16 -10 -7 -15 15 -9 41 -1 41 14 0 11 -7 12 -34
1z"/>
<path d="M1997 2929 c7 -7 15 -10 18 -7 3 3 -2 9 -12 12 -14 6 -15 5 -6 -5z"/>
<path d="M3513 2902 c-1 -22 0 -24 9 -8 6 10 6 22 2 26 -5 5 -10 -3 -11 -18z"/>
<path d="M3552 2893 c1 -54 8 -75 24 -69 9 3 22 -1 30 -9 16 -16 44 -20 44 -7
0 4 -5 13 -11 19 -8 8 -8 13 0 17 15 10 14 39 -1 33 -7 -2 -13 -12 -13 -22 0
-10 -6 -20 -14 -23 -10 -3 -12 4 -9 31 2 20 0 33 -4 31 -4 -3 -8 -16 -8 -30 0
-13 -4 -24 -10 -24 -5 0 -7 17 -4 40 5 31 3 40 -9 40 -10 0 -15 -10 -15 -27z"/>
<path d="M3665 2891 c-3 -5 -1 -12 5 -16 5 -3 10 1 10 9 0 18 -6 21 -15 7z"/>
<path d="M3688 2858 c-16 -5 -28 -14 -28 -20 0 -6 6 -8 13 -5 9 3 12 -4 11
-23 -1 -16 -5 -33 -8 -39 -4 -5 -1 -13 4 -16 6 -4 16 -18 21 -32 13 -34 19
-26 21 25 1 38 5 43 35 54 18 7 33 18 33 26 0 7 -4 11 -9 8 -14 -9 -41 4 -41
20 0 16 -13 17 -52 2z m62 -38 c0 -5 -6 -10 -14 -10 -8 0 -18 5 -21 10 -3 6 3
10 14 10 12 0 21 -4 21 -10z"/>
<path d="M2508 2832 c-44 -27 -35 -44 12 -24 22 9 40 23 40 30 0 17 -20 15
-52 -6z"/>
<path d="M3759 2798 c0 -2 -2 -12 -3 -24 -2 -16 2 -20 15 -17 11 3 15 11 12
24 -4 15 -20 27 -24 17z"/>
<path d="M2511 2754 c-7 -9 -14 -32 -15 -52 l-1 -37 48 -3 c45 -3 48 -2 38 16
-5 10 -7 28 -4 40 6 23 -16 52 -39 52 -7 -1 -19 -8 -27 -16z"/>
<path d="M3770 2740 c0 -5 5 -10 10 -10 6 0 10 5 10 10 0 6 -4 10 -10 10 -5 0
-10 -4 -10 -10z"/>
<path d="M3771 2634 c0 -11 3 -14 6 -6 3 7 2 16 -1 19 -3 4 -6 -2 -5 -13z"/>
<path d="M2260 2374 c1 -5 7 -20 14 -33 8 -14 12 -30 10 -36 -7 -16 13 -65 26
-65 15 0 12 48 -6 86 -16 33 -44 64 -44 48z"/>
<path d="M2980 1770 c0 -5 5 -10 10 -10 6 0 10 5 10 10 0 6 -4 10 -10 10 -5 0
-10 -4 -10 -10z"/>
<path d="M3650 1690 c0 -6 7 -10 15 -10 8 0 15 2 15 4 0 2 -7 6 -15 10 -8 3
-15 1 -15 -4z"/>
<path d="M3541 1604 c-6 -20 -8 -41 -6 -45 3 -4 -1 -9 -7 -12 -9 -3 -6 -10 10
-22 12 -9 22 -21 22 -27 0 -6 -6 -5 -16 3 -22 18 -57 23 -51 7 2 -7 12 -12 22
-10 11 2 14 -1 9 -9 -4 -8 -3 -10 4 -5 7 4 20 2 29 -3 17 -10 16 -10 -2 -11
-11 0 -35 4 -53 9 -32 10 -46 -2 -16 -13 9 -3 14 -12 11 -20 -7 -16 27 -28 41
-14 5 5 14 3 22 -7 7 -8 20 -15 29 -15 14 0 14 2 1 10 -13 8 -12 10 3 10 9 0
17 -4 17 -10 0 -5 12 -10 26 -10 16 0 23 4 18 11 -5 8 4 10 30 7 20 -2 36 -1
36 3 0 4 9 5 20 2 11 -3 20 0 20 6 0 6 5 11 11 11 5 0 8 -4 4 -9 -3 -5 0 -13
6 -17 6 -3 15 -1 19 7 7 10 14 11 36 0 16 -7 30 -8 33 -3 3 5 24 13 46 17 25
5 33 10 22 13 -11 2 -16 10 -13 18 3 7 1 16 -4 19 -9 6 -14 -8 -11 -27 2 -16
-37 -7 -43 9 -6 14 -8 14 -21 -3 -13 -18 -14 -18 -8 4 7 29 -23 31 -32 2 -8
-25 -23 -26 -32 -2 -12 32 -43 43 -43 15 0 -16 2 -16 11 -3 9 12 10 12 5 -3
-3 -10 -6 -20 -6 -23 0 -2 -7 -1 -15 2 -8 4 -13 9 -10 14 2 4 -2 15 -9 25 -11
16 -12 14 -8 -15 4 -28 2 -32 -12 -27 -10 4 -24 7 -32 7 -8 0 -14 9 -14 21 0
12 -4 17 -11 14 -6 -4 -8 -13 -5 -21 3 -8 -1 -14 -8 -14 -19 0 -9 43 17 71
l21 22 -48 -6 c-42 -6 -47 -5 -36 8 6 8 10 20 7 27 -4 8 -8 5 -12 -9 -12 -38
-24 -26 -14 14 11 50 3 55 -10 7z m34 -70 c14 -9 25 -23 25 -31 0 -10 -6 -8
-22 7 -12 11 -25 20 -30 20 -4 0 -8 5 -8 10 0 14 7 13 35 -6z m35 6 c0 -5 -4
-10 -10 -10 -5 0 -10 5 -10 10 0 6 5 10 10 10 6 0 10 -4 10 -10z m260 -90 c0
-5 -4 -10 -10 -10 -5 0 -10 5 -10 10 0 6 5 10 10 10 6 0 10 -4 10 -10z"/>
<path d="M3650 1621 c0 -5 6 -11 13 -14 6 -2 9 -8 5 -12 -5 -5 -16 -1 -27 9
-18 16 -18 16 -18 -9 0 -15 4 -24 11 -22 13 5 38 -18 29 -27 -4 -3 -2 -6 4 -6
16 0 22 62 7 77 -15 15 -24 17 -24 4z"/>
<path d="M3597 1603 c-4 -3 -7 -13 -7 -22 1 -13 3 -13 11 2 11 19 8 33 -4 20z"/>
<path d="M3655 1510 c3 -5 8 -10 11 -10 2 0 4 5 4 10 0 6 -5 10 -11 10 -5 0
-7 -4 -4 -10z"/>
<path d="M4208 1463 c7 -3 16 -2 19 1 4 3 -2 6 -13 5 -11 0 -14 -3 -6 -6z"/>
<path d="M3905 1420 c3 -5 8 -10 11 -10 2 0 4 5 4 10 0 6 -5 10 -11 10 -5 0
-7 -4 -4 -10z"/>
<path d="M4397 1363 c-17 -16 -4 -23 41 -22 26 0 56 4 67 9 12 5 -5 6 -44 3
-47 -5 -62 -3 -57 5 8 13 3 16 -7 5z"/>
<path d="M4438 1363 c7 -3 16 -2 19 1 4 3 -2 6 -13 5 -11 0 -14 -3 -6 -6z"/>
<path d="M4125 1349 c-4 -5 10 -9 29 -9 20 0 36 4 36 8 0 12 -58 13 -65 1z"/>
<path d="M4209 1350 c-7 -5 -8 -10 -1 -14 12 -7 42 3 42 13 0 10 -26 10 -41 1z"/>
<path d="M4270 1350 c0 -5 7 -10 16 -10 8 0 12 5 9 10 -3 6 -10 10 -16 10 -5
0 -9 -4 -9 -10z"/>
<path d="M4580 1350 c-13 -8 -12 -10 3 -10 9 0 17 5 17 10 0 12 -1 12 -20 0z"/>
<path d="M4195 1300 c-3 -6 1 -7 9 -4 18 7 21 14 7 14 -6 0 -13 -4 -16 -10z"/>
<path d="M4442 1281 c-9 -5 -7 -12 8 -26 24 -22 31 -18 15 12 -7 13 -16 19
-23 14z"/>
<path d="M4540 1260 c0 -25 -4 -31 -17 -28 -10 2 -17 12 -17 21 1 10 -3 16
-10 14 -6 -2 -11 -8 -11 -13 0 -5 -4 -15 -9 -22 -6 -10 -11 -9 -21 5 -12 15
-16 16 -27 4 -9 -10 -9 -12 0 -7 8 5 12 0 12 -13 0 -25 -12 -33 -56 -35 -43
-3 -45 -6 -18 -34 l23 -24 -6 24 c-6 23 -6 23 15 4 22 -19 22 -19 23 0 0 11 3
13 6 6 7 -17 23 -5 23 19 0 10 5 19 11 19 6 0 9 -6 6 -14 -9 -24 6 -27 17 -4
13 27 53 39 43 15 -4 -12 -2 -14 10 -10 11 4 14 3 9 -6 -5 -7 -18 -16 -30 -21
-20 -8 -19 -9 5 -9 15 -1 29 6 33 14 3 8 12 15 21 15 8 0 15 6 15 13 0 6 3 23
6 37 5 23 4 24 -9 8 -15 -19 -29 -14 -20 8 3 7 -2 21 -11 29 -15 15 -16 14
-16 -15z"/>
<path d="M4340 1251 c0 -14 26 -20 41 -9 11 8 10 9 -3 4 -10 -3 -18 -1 -18 4
0 6 -4 10 -10 10 -5 0 -10 -4 -10 -9z"/>
<path d="M4367 1213 c-10 -9 -9 -23 2 -23 5 0 11 7 15 15 5 15 -5 20 -17 8z"/>
<path d="M4320 1200 c0 -5 5 -10 10 -10 6 0 10 5 10 10 0 6 -4 10 -10 10 -5 0
-10 -4 -10 -10z"/>
<path d="M0 940 l0 -179 40 -12 c22 -7 40 -16 40 -21 0 -4 7 -8 15 -8 13 0 13
-3 3 -20 -7 -11 -14 -16 -16 -10 -2 6 -7 8 -11 5 -5 -2 -22 0 -39 5 l-32 8 0
-337 0 -337 29 -17 c26 -15 62 -17 295 -17 184 0 266 3 266 11 0 6 -6 9 -12 7
-7 -3 -17 -1 -23 4 -5 5 -30 22 -55 38 -25 16 -55 38 -67 49 -12 12 -25 21
-28 21 -10 0 -106 66 -144 99 -19 16 -30 34 -27 40 5 7 -4 11 -24 11 -18 0
-29 4 -25 10 3 5 -3 10 -15 10 -13 0 -19 4 -14 12 4 6 3 8 -4 4 -6 -3 -31 8
-56 25 -46 30 -60 46 -31 35 8 -3 15 -1 15 4 0 18 140 -35 155 -60 7 -11 -23
-2 -42 13 -7 5 -13 5 -13 0 0 -10 8 -16 96 -73 37 -23 76 -40 98 -42 34 -2 55
-21 36 -33 -6 -4 -10 -1 -10 4 0 6 -5 11 -10 11 -6 0 0 -16 12 -35 22 -33 42
-41 86 -36 6 1 12 -2 12 -7 0 -6 16 -13 35 -16 19 -4 47 -18 61 -33 14 -14 28
-23 31 -20 3 4 -2 13 -11 22 -9 9 -16 18 -16 19 0 2 21 2 48 -1 57 -4 132 -37
132 -58 0 -18 -20 -20 -20 -2 0 7 -7 4 -15 -7 -8 -11 -15 -14 -15 -7 0 7 -4
10 -9 6 -5 -3 -12 -1 -16 5 -3 5 -17 10 -31 10 -13 0 -24 5 -24 11 0 5 -5 7
-10 4 -6 -4 -7 -11 -4 -17 4 -6 -1 -6 -14 1 -38 20 -47 11 -12 -11 40 -25 52
-28 62 -13 5 6 8 6 8 -2 0 -10 39 -13 163 -13 l162 1 -60 25 c-33 14 -74 36
-91 49 -16 13 -64 41 -106 63 -93 49 -120 67 -111 75 3 4 -1 7 -11 7 -9 0 -15
4 -12 9 3 5 -6 12 -20 15 -40 10 -118 62 -105 71 7 4 18 4 26 1 17 -6 30 10
15 19 -6 4 -8 10 -6 14 8 12 -9 30 -32 34 -12 2 -25 6 -28 10 -12 12 -24 8
-24 -7 0 -8 6 -16 13 -19 6 -2 9 -8 5 -12 -5 -5 -16 -1 -27 9 -10 9 -22 16
-27 14 -8 -2 -94 50 -94 57 0 2 6 3 13 2 52 -2 59 3 52 30 -9 35 -23 53 -44
53 -9 0 -29 7 -45 15 -36 19 -36 19 -36 -6 l0 -20 -26 20 c-15 11 -31 18 -37
14 -5 -3 -7 -1 -4 4 8 12 -17 36 -26 26 -4 -3 -7 -2 -7 4 0 23 15 21 51 -8 22
-17 37 -24 33 -16 -3 8 -16 20 -30 27 -31 17 -30 26 1 34 28 7 171 -55 158
-69 -4 -4 2 -5 15 -2 12 3 22 1 22 -4 0 -5 -6 -9 -12 -10 -7 0 -3 -4 10 -9 12
-5 22 -14 22 -19 0 -5 19 -18 43 -29 75 -36 136 -62 143 -62 4 0 14 -9 24 -20
9 -10 61 -43 116 -73 134 -72 143 -78 136 -95 -4 -11 -1 -13 7 -7 7 4 16 3 20
-2 3 -5 27 -17 54 -27 26 -10 53 -24 60 -31 7 -7 32 -16 56 -20 28 -5 41 -11
37 -20 -3 -9 2 -11 17 -8 15 3 18 2 10 -4 -9 -7 -1 -15 30 -28 23 -10 61 -31
84 -47 28 -19 54 -28 80 -28 l38 1 -37 19 c-20 11 -43 29 -50 39 -8 11 -46 37
-85 58 -40 21 -87 52 -106 69 -18 18 -44 37 -57 44 -21 11 -145 105 -160 120
-3 3 -25 19 -50 35 -38 26 -80 62 -180 156 -11 11 -23 14 -31 8 -8 -5 -18 -9
-24 -9 -5 0 -4 4 4 9 11 7 9 15 -12 42 -34 45 -112 119 -124 119 -13 0 -134
126 -127 133 3 3 -5 11 -17 18 -22 11 -63 46 -138 117 -20 18 -41 30 -49 27
-14 -5 -112 88 -112 106 0 5 -4 9 -10 9 -6 0 -10 -67 -10 -180z m150 50 c0 -5
-2 -10 -4 -10 -3 0 -8 5 -11 10 -3 6 -1 10 4 10 6 0 11 -4 11 -10z m330 -320
c0 -5 -7 -7 -15 -4 -8 4 -15 8 -15 10 0 2 7 4 15 4 8 0 15 -4 15 -10z m306
-277 c17 -15 48 -43 68 -61 21 -18 35 -36 31 -40 -4 -4 -15 4 -26 17 -11 13
-22 21 -25 18 -3 -3 9 -20 28 -37 l33 -31 -30 18 c-50 30 -61 43 -44 54 12 8
12 11 -1 18 -8 5 -28 21 -45 35 -16 14 -33 26 -36 26 -4 0 -9 7 -13 15 -7 20
17 7 60 -32z m-756 27 c0 -5 -5 -10 -11 -10 -5 0 -7 5 -4 10 3 6 8 10 11 10 2
0 4 -4 4 -10z m770 -80 c0 -5 -2 -10 -4 -10 -3 0 -8 5 -11 10 -3 6 -1 10 4 10
6 0 11 -4 11 -10z m137 -76 c-7 -7 -37 7 -37 17 0 6 9 5 21 -1 11 -7 19 -14
16 -16z m-592 -24 c3 -5 1 -10 -4 -10 -6 0 -11 5 -11 10 0 6 2 10 4 10 3 0 8
-4 11 -10z m619 2 c2 -4 -4 -8 -14 -8 -10 0 -16 4 -14 8 3 4 9 8 14 8 5 0 11
-4 14 -8z m-511 -34 c4 -10 8 -9 16 2 10 13 15 8 12 -12 0 -5 18 -9 42 -9 l42
-1 -40 -8 c-22 -4 -46 -5 -55 -2 -17 7 -40 27 -40 36 0 11 18 6 23 -6z m597
-43 c7 -9 8 -15 2 -15 -5 0 -12 7 -16 15 -3 8 -4 15 -2 15 2 0 9 -7 16 -15z"/>
<path d="M3102 551 c-11 -6 -10 -10 4 -15 9 -4 22 -1 28 5 8 9 8 10 -1 5 -6
-3 -13 -2 -15 4 -2 5 -9 6 -16 1z"/>
<path d="M3185 550 c-3 -5 -1 -10 4 -10 6 0 11 5 11 10 0 6 -2 10 -4 10 -3 0
-8 -4 -11 -10z"/>
<path d="M807 519 c7 -7 15 -10 18 -7 3 3 -2 9 -12 12 -14 6 -15 5 -6 -5z"/>
<path d="M3100 516 c0 -9 30 -14 35 -6 4 6 -3 10 -14 10 -12 0 -21 -2 -21 -4z"/>
<path d="M3040 490 c0 -12 7 -20 18 -20 9 0 27 -3 40 -6 13 -4 22 -2 22 5 0 6
-7 11 -15 11 -9 0 -18 7 -21 15 -9 23 -44 19 -44 -5z"/>
<path d="M840 495 c0 -11 36 -43 77 -68 23 -15 44 -31 48 -37 8 -13 35 -13 35
1 0 6 -9 13 -20 16 -11 3 -20 12 -20 19 0 8 -9 14 -19 14 -10 0 -21 6 -24 14
-3 8 -20 21 -38 30 -35 18 -39 19 -39 11z"/>
<path d="M2510 490 c0 -5 5 -10 10 -10 6 0 10 5 10 10 0 6 -4 10 -10 10 -5 0
-10 -4 -10 -10z"/>
<path d="M3000 481 c0 -12 6 -21 16 -21 9 0 14 7 12 17 -5 25 -28 28 -28 4z"/>
<path d="M2205 450 c-4 -6 3 -10 14 -10 25 0 27 6 6 13 -8 4 -17 2 -20 -3z"/>
<path d="M2492 428 c6 -18 28 -21 28 -4 0 9 -7 16 -16 16 -9 0 -14 -5 -12 -12z"/>
<path d="M2200 424 c0 -3 5 -15 11 -26 9 -16 8 -23 -2 -29 -10 -6 -8 -9 7 -9
25 0 40 28 19 36 -7 3 -11 12 -8 20 3 8 -1 14 -11 14 -9 0 -16 -3 -16 -6z"/>
<path d="M2513 388 c2 -7 10 -13 17 -13 7 0 15 6 18 13 2 7 -5 12 -18 12 -13
0 -20 -5 -17 -12z"/>
<path d="M2440 380 c0 -5 5 -10 10 -10 6 0 10 5 10 10 0 6 -4 10 -10 10 -5 0
-10 -4 -10 -10z"/>
<path d="M1000 366 c0 -11 80 -66 103 -70 43 -7 22 18 -38 48 -53 26 -65 30
-65 22z"/>
<path d="M2545 320 c-3 -5 -1 -10 4 -10 6 0 11 5 11 10 0 6 -2 10 -4 10 -3 0
-8 -4 -11 -10z"/>
<path d="M2840 295 c0 -5 5 -17 10 -25 5 -8 10 -10 10 -5 0 6 -5 17 -10 25 -5
8 -10 11 -10 5z"/>
<path d="M2270 269 c0 -5 5 -7 10 -4 6 3 10 8 10 11 0 2 -4 4 -10 4 -5 0 -10
-5 -10 -11z"/>
<path d="M240 259 c0 -5 5 -7 10 -4 6 3 10 8 10 11 0 2 -4 4 -10 4 -5 0 -10
-5 -10 -11z"/>
<path d="M630 253 c0 -7 32 -32 43 -33 17 0 5 18 -18 28 -14 6 -25 9 -25 5z"/>
<path d="M2822 240 c0 -14 2 -19 5 -12 2 6 2 18 0 25 -3 6 -5 1 -5 -13z"/>
<path d="M1210 214 c1 -10 70 -47 76 -41 2 2 -2 11 -9 20 -13 18 -67 34 -67
21z"/>
<path d="M2557 135 c-4 -8 -1 -17 5 -21 7 -4 8 -3 4 4 -4 7 -2 12 3 12 6 0 11
5 11 10 0 15 -17 12 -23 -5z"/>
<path d="M2464 95 c-9 -13 -14 -30 -11 -37 3 -8 6 -5 6 6 1 14 6 17 24 13 16
-4 27 1 40 19 l18 24 -30 0 c-21 0 -35 -7 -47 -25z"/>
<path d="M2687 100 c-6 -23 3 -26 21 -8 16 16 15 28 -2 28 -7 0 -16 -9 -19
-20z"/>
<path d="M2755 110 c3 -5 8 -10 11 -10 2 0 4 5 4 10 0 6 -5 10 -11 10 -5 0 -7
-4 -4 -10z"/>
<path d="M2920 100 c0 -5 5 -10 10 -10 6 0 10 5 10 10 0 6 -4 10 -10 10 -5 0
-10 -4 -10 -10z"/>
<path d="M2793 55 c0 -22 2 -30 4 -17 2 12 2 30 0 40 -3 9 -5 -1 -4 -23z"/>
<path d="M2810 55 c0 -8 5 -15 10 -15 6 0 10 7 10 15 0 8 -4 15 -10 15 -5 0
-10 -7 -10 -15z"/>
<path d="M2700 38 c0 -11 5 -16 10 -13 6 3 10 -2 11 -12 0 -15 2 -14 11 5 6
13 17 21 24 18 8 -3 11 0 8 8 -3 7 -18 13 -34 13 -23 0 -30 -5 -30 -19z"/>
<path d="M2600 20 c0 -26 6 -26 13 0 3 11 1 20 -4 20 -5 0 -9 -9 -9 -20z"/>
<path d="M2670 33 c0 -5 5 -15 10 -23 8 -12 10 -11 10 8 0 12 -4 22 -10 22 -5
0 -10 -3 -10 -7z"/>
</g>
</svg>
